<mxfile host="Electron" agent="Mozilla/5.0 (Windows NT 10.0; Win64; x64) AppleWebKit/537.36 (KHTML, like Gecko) draw.io/26.0.16 Chrome/132.0.6834.196 Electron/34.2.0 Safari/537.36" version="26.0.16">
  <diagram name="Page-1" id="-rIgpw293X4p-Oy1sCJi">
    <mxGraphModel dx="1036" dy="606" grid="1" gridSize="10" guides="1" tooltips="1" connect="1" arrows="1" fold="1" page="1" pageScale="1" pageWidth="1920" pageHeight="1200" math="0" shadow="0">
      <root>
        <mxCell id="0" />
        <mxCell id="1" parent="0" />
        <mxCell id="JO2K1ngYCOxov4rSQ2aJ-40" value="" style="rounded=1;whiteSpace=wrap;html=1;arcSize=3;fillColor=none;dashed=1;" parent="1" vertex="1">
          <mxGeometry x="680" y="90" width="340" height="420" as="geometry" />
        </mxCell>
        <mxCell id="JO2K1ngYCOxov4rSQ2aJ-1" value="&lt;h1 style=&quot;margin-top: 0px;&quot;&gt;INTEGRATION MODEL&lt;/h1&gt;" style="text;html=1;whiteSpace=wrap;overflow=hidden;rounded=0;" parent="1" vertex="1">
          <mxGeometry x="120" y="20" width="260" height="40" as="geometry" />
        </mxCell>
        <mxCell id="JO2K1ngYCOxov4rSQ2aJ-2" value="(Table Relation)" style="text;html=1;align=center;verticalAlign=middle;whiteSpace=wrap;rounded=0;" parent="1" vertex="1">
          <mxGeometry x="380" y="30" width="90" height="30" as="geometry" />
        </mxCell>
        <mxCell id="JO2K1ngYCOxov4rSQ2aJ-8" value="&lt;font style=&quot;font-size: 16px;&quot;&gt;&lt;b&gt;crm_cust_info&lt;/b&gt;&lt;/font&gt;" style="swimlane;fontStyle=0;childLayout=stackLayout;horizontal=1;startSize=30;horizontalStack=0;resizeParent=1;resizeParentMax=0;resizeLast=0;collapsible=1;marginBottom=0;whiteSpace=wrap;html=1;rounded=1;swimlaneLine=1;glass=0;fillColor=#dae8fc;strokeColor=#6c8ebf;" parent="1" vertex="1">
          <mxGeometry x="383" y="300" width="150" height="90" as="geometry" />
        </mxCell>
        <mxCell id="JO2K1ngYCOxov4rSQ2aJ-9" value="&lt;font style=&quot;font-size: 14px;&quot;&gt;cst_id&lt;/font&gt;" style="text;align=center;verticalAlign=middle;spacingLeft=4;spacingRight=4;overflow=hidden;points=[[0,0.5],[1,0.5]];portConstraint=eastwest;rotatable=0;whiteSpace=wrap;html=1;" parent="JO2K1ngYCOxov4rSQ2aJ-8" vertex="1">
          <mxGeometry y="30" width="150" height="30" as="geometry" />
        </mxCell>
        <mxCell id="JO2K1ngYCOxov4rSQ2aJ-23" value="&lt;font style=&quot;font-size: 14px;&quot;&gt;cst_key&lt;/font&gt;" style="text;align=center;verticalAlign=middle;spacingLeft=4;spacingRight=4;overflow=hidden;points=[[0,0.5],[1,0.5]];portConstraint=eastwest;rotatable=0;whiteSpace=wrap;html=1;" parent="JO2K1ngYCOxov4rSQ2aJ-8" vertex="1">
          <mxGeometry y="60" width="150" height="30" as="geometry" />
        </mxCell>
        <mxCell id="JO2K1ngYCOxov4rSQ2aJ-12" value="&lt;font style=&quot;font-size: 14px;&quot;&gt;Customer information&lt;/font&gt;" style="text;html=1;align=center;verticalAlign=middle;whiteSpace=wrap;rounded=0;" parent="1" vertex="1">
          <mxGeometry x="388" y="270" width="140" height="30" as="geometry" />
        </mxCell>
        <mxCell id="JO2K1ngYCOxov4rSQ2aJ-13" value="&lt;font style=&quot;font-size: 16px;&quot;&gt;&lt;b&gt;crm_prd_info&lt;/b&gt;&lt;/font&gt;" style="swimlane;fontStyle=0;childLayout=stackLayout;horizontal=1;startSize=30;horizontalStack=0;resizeParent=1;resizeParentMax=0;resizeLast=0;collapsible=1;marginBottom=0;whiteSpace=wrap;html=1;rounded=1;swimlaneLine=1;glass=0;fillColor=#dae8fc;strokeColor=#6c8ebf;" parent="1" vertex="1">
          <mxGeometry x="388" y="150" width="150" height="60" as="geometry" />
        </mxCell>
        <mxCell id="JO2K1ngYCOxov4rSQ2aJ-14" value="&lt;font style=&quot;font-size: 14px;&quot;&gt;prd&lt;/font&gt;&lt;span style=&quot;font-size: 14px; background-color: transparent; color: light-dark(rgb(0, 0, 0), rgb(255, 255, 255));&quot;&gt;_key&lt;/span&gt;" style="text;align=center;verticalAlign=middle;spacingLeft=4;spacingRight=4;overflow=hidden;points=[[0,0.5],[1,0.5]];portConstraint=eastwest;rotatable=0;whiteSpace=wrap;html=1;" parent="JO2K1ngYCOxov4rSQ2aJ-13" vertex="1">
          <mxGeometry y="30" width="150" height="30" as="geometry" />
        </mxCell>
        <mxCell id="JO2K1ngYCOxov4rSQ2aJ-15" value="&lt;font style=&quot;font-size: 14px;&quot;&gt;Product information&lt;/font&gt;" style="text;html=1;align=center;verticalAlign=middle;whiteSpace=wrap;rounded=0;" parent="1" vertex="1">
          <mxGeometry x="392" y="120" width="140" height="30" as="geometry" />
        </mxCell>
        <mxCell id="JO2K1ngYCOxov4rSQ2aJ-16" value="&lt;font style=&quot;font-size: 16px;&quot;&gt;&lt;b&gt;crm_sales_details&lt;/b&gt;&lt;/font&gt;" style="swimlane;fontStyle=0;childLayout=stackLayout;horizontal=1;startSize=30;horizontalStack=0;resizeParent=1;resizeParentMax=0;resizeLast=0;collapsible=1;marginBottom=0;whiteSpace=wrap;html=1;rounded=1;swimlaneLine=1;glass=0;fillColor=#dae8fc;strokeColor=default;" parent="1" vertex="1">
          <mxGeometry x="130" y="200" width="180" height="90" as="geometry" />
        </mxCell>
        <mxCell id="JO2K1ngYCOxov4rSQ2aJ-17" value="&lt;font style=&quot;font-size: 14px;&quot;&gt;prd&lt;/font&gt;&lt;span style=&quot;font-size: 14px; background-color: transparent; color: light-dark(rgb(0, 0, 0), rgb(255, 255, 255));&quot;&gt;_id&lt;/span&gt;" style="text;align=center;verticalAlign=middle;spacingLeft=4;spacingRight=4;overflow=hidden;points=[[0,0.5],[1,0.5]];portConstraint=eastwest;rotatable=0;whiteSpace=wrap;html=1;strokeColor=none;rounded=1;fillColor=none;" parent="JO2K1ngYCOxov4rSQ2aJ-16" vertex="1">
          <mxGeometry y="30" width="180" height="30" as="geometry" />
        </mxCell>
        <mxCell id="JO2K1ngYCOxov4rSQ2aJ-19" value="&lt;font style=&quot;font-size: 14px;&quot;&gt;cst_id&lt;/font&gt;" style="text;align=center;verticalAlign=middle;spacingLeft=4;spacingRight=4;overflow=hidden;points=[[0,0.5],[1,0.5]];portConstraint=eastwest;rotatable=0;whiteSpace=wrap;html=1;strokeColor=none;rounded=1;" parent="JO2K1ngYCOxov4rSQ2aJ-16" vertex="1">
          <mxGeometry y="60" width="180" height="30" as="geometry" />
        </mxCell>
        <mxCell id="JO2K1ngYCOxov4rSQ2aJ-18" value="&lt;font style=&quot;font-size: 14px;&quot;&gt;Sales(Transactional Table)&lt;/font&gt;" style="text;html=1;align=center;verticalAlign=middle;whiteSpace=wrap;rounded=0;" parent="1" vertex="1">
          <mxGeometry x="134" y="170" width="176" height="30" as="geometry" />
        </mxCell>
        <mxCell id="JO2K1ngYCOxov4rSQ2aJ-22" style="edgeStyle=orthogonalEdgeStyle;rounded=0;orthogonalLoop=1;jettySize=auto;html=1;" parent="1" source="JO2K1ngYCOxov4rSQ2aJ-19" target="JO2K1ngYCOxov4rSQ2aJ-9" edge="1">
          <mxGeometry relative="1" as="geometry">
            <Array as="points">
              <mxPoint x="347" y="275" />
              <mxPoint x="347" y="345" />
            </Array>
          </mxGeometry>
        </mxCell>
        <mxCell id="JO2K1ngYCOxov4rSQ2aJ-24" value="&lt;font style=&quot;font-size: 16px;&quot;&gt;&lt;b&gt;erp_cust_az12&lt;/b&gt;&lt;/font&gt;" style="swimlane;fontStyle=0;childLayout=stackLayout;horizontal=1;startSize=30;horizontalStack=0;resizeParent=1;resizeParentMax=0;resizeLast=0;collapsible=1;marginBottom=0;whiteSpace=wrap;html=1;rounded=1;swimlaneLine=1;glass=0;fillColor=#d5e8d4;strokeColor=#82b366;" parent="1" vertex="1">
          <mxGeometry x="767" y="277" width="190" height="60" as="geometry" />
        </mxCell>
        <mxCell id="JO2K1ngYCOxov4rSQ2aJ-25" value="&lt;span style=&quot;font-size: 14px;&quot;&gt;cid&lt;/span&gt;" style="text;align=center;verticalAlign=middle;spacingLeft=4;spacingRight=4;overflow=hidden;points=[[0,0.5],[1,0.5]];portConstraint=eastwest;rotatable=0;whiteSpace=wrap;html=1;" parent="JO2K1ngYCOxov4rSQ2aJ-24" vertex="1">
          <mxGeometry y="30" width="190" height="30" as="geometry" />
        </mxCell>
        <mxCell id="JO2K1ngYCOxov4rSQ2aJ-26" value="&lt;font style=&quot;font-size: 14px;&quot;&gt;Extra Customer info(birthdate)&lt;/font&gt;" style="text;html=1;align=center;verticalAlign=middle;whiteSpace=wrap;rounded=0;" parent="1" vertex="1">
          <mxGeometry x="764" y="250" width="196" height="30" as="geometry" />
        </mxCell>
        <mxCell id="JO2K1ngYCOxov4rSQ2aJ-27" style="edgeStyle=orthogonalEdgeStyle;rounded=0;orthogonalLoop=1;jettySize=auto;html=1;entryX=1;entryY=0.5;entryDx=0;entryDy=0;" parent="1" source="JO2K1ngYCOxov4rSQ2aJ-25" target="JO2K1ngYCOxov4rSQ2aJ-23" edge="1">
          <mxGeometry relative="1" as="geometry">
            <Array as="points">
              <mxPoint x="650" y="322" />
              <mxPoint x="650" y="375" />
            </Array>
          </mxGeometry>
        </mxCell>
        <mxCell id="JO2K1ngYCOxov4rSQ2aJ-28" value="&lt;font style=&quot;font-size: 16px;&quot;&gt;&lt;b&gt;erp_loc_a101&lt;/b&gt;&lt;/font&gt;" style="swimlane;fontStyle=0;childLayout=stackLayout;horizontal=1;startSize=30;horizontalStack=0;resizeParent=1;resizeParentMax=0;resizeLast=0;collapsible=1;marginBottom=0;whiteSpace=wrap;html=1;rounded=1;swimlaneLine=1;glass=0;fillColor=#d5e8d4;strokeColor=#82b366;" parent="1" vertex="1">
          <mxGeometry x="767" y="404" width="190" height="60" as="geometry" />
        </mxCell>
        <mxCell id="JO2K1ngYCOxov4rSQ2aJ-29" value="&lt;span style=&quot;font-size: 14px;&quot;&gt;cid&lt;/span&gt;" style="text;align=center;verticalAlign=middle;spacingLeft=4;spacingRight=4;overflow=hidden;points=[[0,0.5],[1,0.5]];portConstraint=eastwest;rotatable=0;whiteSpace=wrap;html=1;" parent="JO2K1ngYCOxov4rSQ2aJ-28" vertex="1">
          <mxGeometry y="30" width="190" height="30" as="geometry" />
        </mxCell>
        <mxCell id="JO2K1ngYCOxov4rSQ2aJ-30" value="&lt;font style=&quot;font-size: 14px;&quot;&gt;Extra Customer info(country)&lt;/font&gt;" style="text;html=1;align=center;verticalAlign=middle;whiteSpace=wrap;rounded=0;" parent="1" vertex="1">
          <mxGeometry x="764" y="374" width="196" height="30" as="geometry" />
        </mxCell>
        <mxCell id="JO2K1ngYCOxov4rSQ2aJ-33" value="&lt;font style=&quot;font-size: 16px;&quot;&gt;&lt;b&gt;erp_px_cat_g1v2&lt;/b&gt;&lt;/font&gt;" style="swimlane;fontStyle=0;childLayout=stackLayout;horizontal=1;startSize=30;horizontalStack=0;resizeParent=1;resizeParentMax=0;resizeLast=0;collapsible=1;marginBottom=0;whiteSpace=wrap;html=1;rounded=1;swimlaneLine=1;glass=0;fillColor=#d5e8d4;strokeColor=#82b366;" parent="1" vertex="1">
          <mxGeometry x="767" y="150" width="190" height="60" as="geometry" />
        </mxCell>
        <mxCell id="JO2K1ngYCOxov4rSQ2aJ-34" value="&lt;span style=&quot;font-size: 14px;&quot;&gt;id&lt;/span&gt;" style="text;align=center;verticalAlign=middle;spacingLeft=4;spacingRight=4;overflow=hidden;points=[[0,0.5],[1,0.5]];portConstraint=eastwest;rotatable=0;whiteSpace=wrap;html=1;" parent="JO2K1ngYCOxov4rSQ2aJ-33" vertex="1">
          <mxGeometry y="30" width="190" height="30" as="geometry" />
        </mxCell>
        <mxCell id="JO2K1ngYCOxov4rSQ2aJ-35" value="&lt;font style=&quot;font-size: 14px;&quot;&gt;Product category information&lt;/font&gt;" style="text;html=1;align=center;verticalAlign=middle;whiteSpace=wrap;rounded=0;" parent="1" vertex="1">
          <mxGeometry x="764" y="120" width="196" height="30" as="geometry" />
        </mxCell>
        <mxCell id="JO2K1ngYCOxov4rSQ2aJ-36" style="edgeStyle=orthogonalEdgeStyle;rounded=0;orthogonalLoop=1;jettySize=auto;html=1;entryX=1;entryY=0.5;entryDx=0;entryDy=0;" parent="1" source="JO2K1ngYCOxov4rSQ2aJ-34" target="JO2K1ngYCOxov4rSQ2aJ-14" edge="1">
          <mxGeometry relative="1" as="geometry" />
        </mxCell>
        <mxCell id="JO2K1ngYCOxov4rSQ2aJ-37" style="edgeStyle=orthogonalEdgeStyle;rounded=0;orthogonalLoop=1;jettySize=auto;html=1;entryX=0.016;entryY=0.283;entryDx=0;entryDy=0;entryPerimeter=0;" parent="1" source="JO2K1ngYCOxov4rSQ2aJ-17" target="JO2K1ngYCOxov4rSQ2aJ-14" edge="1">
          <mxGeometry relative="1" as="geometry" />
        </mxCell>
        <mxCell id="JO2K1ngYCOxov4rSQ2aJ-38" value="" style="rounded=1;whiteSpace=wrap;html=1;arcSize=3;fillColor=none;dashed=1;" parent="1" vertex="1">
          <mxGeometry x="70" y="90" width="540" height="420" as="geometry" />
        </mxCell>
        <mxCell id="JO2K1ngYCOxov4rSQ2aJ-39" value="&lt;b&gt;&lt;font style=&quot;font-size: 21px;&quot;&gt;CRM&lt;/font&gt;&lt;/b&gt;" style="rounded=1;whiteSpace=wrap;html=1;fillColor=#dae8fc;strokeColor=#6c8ebf;" parent="1" vertex="1">
          <mxGeometry x="260" y="75" width="150" height="30" as="geometry" />
        </mxCell>
        <mxCell id="JO2K1ngYCOxov4rSQ2aJ-41" value="&lt;b&gt;&lt;font style=&quot;font-size: 20px;&quot;&gt;ERP&lt;/font&gt;&lt;/b&gt;" style="rounded=1;whiteSpace=wrap;html=1;fillColor=#d5e8d4;strokeColor=#82b366;" parent="1" vertex="1">
          <mxGeometry x="770" y="75" width="160" height="30" as="geometry" />
        </mxCell>
        <mxCell id="Ex0IACCi1mBLQsypGWU6-1" value="&lt;b&gt;&lt;font style=&quot;font-size: 18px;&quot;&gt;PRODUCT&lt;/font&gt;&lt;/b&gt;" style="text;html=1;strokeColor=#006EAF;fillColor=#1ba1e2;align=center;verticalAlign=middle;whiteSpace=wrap;overflow=hidden;fontColor=#ffffff;" vertex="1" parent="1">
          <mxGeometry x="400" y="210" width="130" height="30" as="geometry" />
        </mxCell>
        <mxCell id="Ex0IACCi1mBLQsypGWU6-2" value="&lt;b&gt;&lt;font style=&quot;font-size: 18px;&quot;&gt;PRODUCT&lt;/font&gt;&lt;/b&gt;" style="text;html=1;strokeColor=#006EAF;fillColor=#1ba1e2;align=center;verticalAlign=middle;whiteSpace=wrap;overflow=hidden;fontColor=#ffffff;" vertex="1" parent="1">
          <mxGeometry x="790" y="210" width="130" height="30" as="geometry" />
        </mxCell>
        <mxCell id="Ex0IACCi1mBLQsypGWU6-3" value="&lt;b&gt;&lt;font style=&quot;font-size: 18px;&quot;&gt;CUSTOMER&lt;/font&gt;&lt;/b&gt;" style="text;html=1;strokeColor=#2D7600;fillColor=#60a917;align=center;verticalAlign=middle;whiteSpace=wrap;overflow=hidden;fontColor=#ffffff;" vertex="1" parent="1">
          <mxGeometry x="393" y="390" width="130" height="30" as="geometry" />
        </mxCell>
        <mxCell id="Ex0IACCi1mBLQsypGWU6-4" value="&lt;b&gt;&lt;font style=&quot;font-size: 18px;&quot;&gt;CUSTOMER&lt;/font&gt;&lt;/b&gt;" style="text;html=1;strokeColor=#2D7600;fillColor=#60a917;align=center;verticalAlign=middle;whiteSpace=wrap;overflow=hidden;fontColor=#ffffff;" vertex="1" parent="1">
          <mxGeometry x="797" y="337" width="130" height="33" as="geometry" />
        </mxCell>
        <mxCell id="Ex0IACCi1mBLQsypGWU6-5" value="&lt;b&gt;&lt;font style=&quot;font-size: 18px;&quot;&gt;CUSTOMER&lt;/font&gt;&lt;/b&gt;" style="text;html=1;strokeColor=#2D7600;fillColor=#60a917;align=center;verticalAlign=middle;whiteSpace=wrap;overflow=hidden;fontColor=#ffffff;" vertex="1" parent="1">
          <mxGeometry x="800" y="464" width="130" height="30" as="geometry" />
        </mxCell>
        <mxCell id="Ex0IACCi1mBLQsypGWU6-6" style="edgeStyle=orthogonalEdgeStyle;rounded=0;orthogonalLoop=1;jettySize=auto;html=1;entryX=0.852;entryY=0.69;entryDx=0;entryDy=0;entryPerimeter=0;" edge="1" parent="1" source="JO2K1ngYCOxov4rSQ2aJ-28" target="JO2K1ngYCOxov4rSQ2aJ-38">
          <mxGeometry relative="1" as="geometry" />
        </mxCell>
        <mxCell id="Ex0IACCi1mBLQsypGWU6-7" value="&lt;b&gt;&lt;font style=&quot;font-size: 18px;&quot;&gt;SALES&lt;/font&gt;&lt;/b&gt;" style="text;html=1;strokeColor=#A50040;fillColor=#d80073;align=center;verticalAlign=middle;whiteSpace=wrap;overflow=hidden;fontColor=#ffffff;" vertex="1" parent="1">
          <mxGeometry x="155" y="290" width="130" height="30" as="geometry" />
        </mxCell>
      </root>
    </mxGraphModel>
  </diagram>
</mxfile>
